<svg xmlns="http://www.w3.org/2000/svg" width="45" height="50" viewBox="0 0 45 50">
  <g id="グループ_18" data-name="グループ 18" transform="translate(-367 -908)">
    <g id="長方形_2" data-name="長方形 2" transform="translate(372 908)" fill="#d43535" stroke="#707070" stroke-width="1">
      <path d="M16,0h2A16,16,0,0,1,34,16V50a0,0,0,0,1,0,0H0a0,0,0,0,1,0,0V16A16,16,0,0,1,16,0Z" stroke="none"/>
      <path d="M16,.5h2A15.5,15.5,0,0,1,33.5,16V49.5a0,0,0,0,1,0,0H.5a0,0,0,0,1,0,0V16A15.5,15.5,0,0,1,16,.5Z" fill="none"/>
    </g>
    <g id="長方形_3" data-name="長方形 3" transform="translate(369 941)" fill="#d43535" stroke="#707070" stroke-width="1">
      <path d="M0,0H41a0,0,0,0,1,0,0V13a4,4,0,0,1-4,4H4a4,4,0,0,1-4-4V0A0,0,0,0,1,0,0Z" stroke="none"/>
      <path d="M.5.5h40a0,0,0,0,1,0,0V13A3.5,3.5,0,0,1,37,16.5H4A3.5,3.5,0,0,1,.5,13V.5A0,0,0,0,1,.5.5Z" fill="none"/>
    </g>
    <g id="楕円形_2" data-name="楕円形 2" transform="translate(367 932)" fill="#d43535" stroke="#707070" stroke-width="1">
      <circle cx="5.5" cy="5.5" r="5.5" stroke="none"/>
      <circle cx="5.5" cy="5.5" r="5" fill="none"/>
    </g>
    <g id="楕円形_3" data-name="楕円形 3" transform="translate(401 932)" fill="#d43535" stroke="#707070" stroke-width="1">
      <circle cx="5.5" cy="5.5" r="5.5" stroke="none"/>
      <circle cx="5.5" cy="5.5" r="5" fill="none"/>
    </g>
  </g>
</svg>
